<svg width="116" height="45" viewBox="0 0 116 45" fill="none" xmlns="http://www.w3.org/2000/svg">
<path d="M12.3775 17.935C-0.803906 29.0921 61.4442 22.9408 105.913 18.946" stroke="url(#paint0_linear_3_31)" stroke-width="0.8" stroke-linecap="round"/>
<path d="M22.51 23.58C22.51 21.3 22.41 19.6333 22.21 18.58C22.01 17.5133 21.63 16.88 21.07 16.68L21.15 16.4C21.5634 16.4533 22.2367 16.48 23.17 16.48C24.1034 16.48 24.9634 16.4267 25.7501 16.32L25.81 16.78C24.8634 17.0067 24.2034 17.14 23.83 17.18C23.6567 18.4867 23.57 20.2267 23.57 22.4V23.58C23.57 26.0733 23.6567 27.8133 23.83 28.8C24.51 28.88 25.15 29 25.7501 29.16L25.67 29.66C24.9634 29.5533 24.25 29.5 23.53 29.5C22.8234 29.5 22.25 29.52 21.81 29.56C21.81 29.12 21.3767 28.14 20.51 26.62C19.6434 25.1 18.07 22.56 15.79 19L15.71 19.04V22.4C15.71 25.6667 15.9567 27.8 16.45 28.8C17.1834 28.8667 17.91 28.9933 18.63 29.18L18.59 29.66C17.6034 29.5533 16.53 29.5 15.37 29.5C14.2234 29.5 13.2967 29.5533 12.59 29.66L12.51 29.16C13.11 28.9733 13.75 28.8333 14.43 28.74C14.5767 27.6467 14.65 25.9267 14.65 23.58V22.4C14.65 20.52 14.57 18.9133 14.41 17.58C12.8367 17.58 11.83 17.7933 11.39 18.22C11.2967 18.4067 11.25 18.7 11.25 19.1C11.25 19.5 11.3167 19.7733 11.45 19.92L11.43 20.06C11.0967 20.26 10.7634 20.54 10.43 20.9C10.27 20.8867 10.1434 20.82 10.05 20.7C9.94338 20.58 9.89005 20.44 9.89005 20.28C9.89005 19.6267 10.2834 18.8467 11.07 17.94C11.8567 17.0333 12.59 16.46 13.27 16.22C13.43 16.2333 13.8767 16.28 14.61 16.36C15.3567 16.44 15.97 16.48 16.45 16.48C16.93 16.48 17.3767 16.44 17.79 16.36L17.87 16.86C17.3234 17.0867 17.05 17.3067 17.05 17.52C17.1167 17.88 17.4967 18.64 18.19 19.8C18.8834 20.9467 20.2967 23.18 22.43 26.5L22.51 26.46V23.58ZM33.4711 16.6C34.5245 16.6 35.2511 16.3933 35.6511 15.98L36.0311 16.18C35.4578 17.22 35.1245 18.4333 35.0311 19.82H34.5311C34.4111 19.2467 34.3511 18.52 34.3511 17.64C34.0045 17.7467 33.5711 17.8 33.0511 17.8C32.5311 17.8 31.6711 17.7467 30.4711 17.64C30.3645 18.6267 30.3111 20.14 30.3111 22.18C30.8845 22.2867 31.4445 22.34 31.9911 22.34C33.0311 22.34 33.6911 22.0533 33.9711 21.48L34.3711 21.56C34.2511 21.9867 34.1911 22.5 34.1911 23.1C34.1911 23.6867 34.2311 24.2667 34.3111 24.84L33.8511 24.92C33.6511 24.4133 33.5178 23.82 33.4511 23.14C32.9578 23.1 32.4445 23.08 31.9111 23.08C31.3778 23.08 30.8445 23.1133 30.3111 23.18C30.3245 25.9 30.4111 27.7733 30.5711 28.8C31.2378 28.8667 31.9711 28.9933 32.7711 29.18L32.7111 29.66C31.7245 29.5533 30.6511 29.5 29.4911 29.5C28.3445 29.5 27.4178 29.5533 26.7111 29.66L26.6311 29.16C27.2311 28.9733 27.8711 28.8333 28.5511 28.74C28.6978 27.6467 28.7711 25.9267 28.7711 23.58V22.4C28.7711 21.08 28.6911 19.46 28.5311 17.54H28.4911C26.9178 17.54 25.9111 17.7533 25.4711 18.18C25.3778 18.3667 25.3311 18.66 25.3311 19.06C25.3311 19.46 25.3978 19.7333 25.5311 19.88L25.5111 20.02C25.1778 20.22 24.8445 20.5 24.5111 20.86C24.3511 20.8467 24.2245 20.78 24.1311 20.66C24.0245 20.54 23.9711 20.4 23.9711 20.24C23.9711 19.5867 24.3645 18.8067 25.1511 17.9C25.9378 16.9933 26.6711 16.42 27.3511 16.18C28.2845 16.22 29.3711 16.3 30.6111 16.42C31.8645 16.54 32.8178 16.6 33.4711 16.6ZM38.4568 16.18C39.3768 16.22 40.4301 16.3 41.6168 16.42C42.8168 16.54 43.6701 16.6 44.1768 16.6C44.6834 16.6 45.0634 16.56 45.3168 16.48C45.9301 15.8933 46.3634 15.4467 46.6168 15.14L46.9368 15.38C46.2301 16.3 45.8034 17.26 45.6568 18.26C44.3368 17.9 43.1301 17.68 42.0368 17.6C41.9434 19.0533 41.8968 20.9667 41.8968 23.34C41.8968 25.7 41.9834 27.52 42.1568 28.8C42.8234 28.8667 43.5568 28.9933 44.3568 29.18L44.2968 29.66C43.3101 29.5533 42.2368 29.5 41.0768 29.5C39.9301 29.5 39.0034 29.5533 38.2968 29.66L38.2168 29.16C38.8168 28.9733 39.4568 28.8333 40.1368 28.74C40.2834 27.6467 40.3568 25.9267 40.3568 23.58V22.4C40.3568 21.08 40.2768 19.46 40.1168 17.54H39.5968C38.0234 17.54 37.0168 17.7533 36.5768 18.18C36.4834 18.3667 36.4368 18.66 36.4368 19.06C36.4368 19.46 36.5034 19.7333 36.6368 19.88L36.6168 20.02C36.2834 20.22 35.9501 20.5 35.6168 20.86C35.4568 20.8467 35.3301 20.78 35.2368 20.66C35.1301 20.54 35.0768 20.4 35.0768 20.24C35.0768 19.5867 35.4701 18.8067 36.2568 17.9C37.0434 16.9933 37.7768 16.42 38.4568 16.18ZM49.3079 29.74C48.9479 29.74 48.6345 29.6067 48.3679 29.34C48.1012 29.0733 47.9679 28.76 47.9679 28.4C47.9679 27.9867 48.0879 27.66 48.3279 27.42C48.5679 27.18 48.8945 27.06 49.3079 27.06C49.6545 27.06 49.9612 27.1933 50.2279 27.46C50.5079 27.7267 50.6479 28.04 50.6479 28.4C50.6479 28.8 50.5212 29.1267 50.2679 29.38C50.0145 29.62 49.6945 29.74 49.3079 29.74ZM56.004 27.14C56.004 27.7933 56.084 28.28 56.244 28.6C56.164 28.8133 55.9373 29.02 55.564 29.22C55.204 29.4067 54.7973 29.5 54.344 29.5C53.904 29.5 53.5573 29.3667 53.304 29.1C53.064 28.82 52.944 28.4467 52.944 27.98V22.9C52.944 21.7933 52.8373 20.8733 52.624 20.14L52.504 19.76C52.5573 19.6933 52.6306 19.6067 52.724 19.5C52.8306 19.3933 53.0506 19.2533 53.384 19.08C53.7173 18.9067 54.064 18.82 54.424 18.82C55.1973 18.82 55.684 19.2733 55.884 20.18C56.3373 19.3267 57.104 18.9 58.184 18.9C59.2773 18.9 60.044 19.3933 60.484 20.38C60.644 19.9667 60.924 19.62 61.324 19.34C61.724 19.0467 62.2706 18.9 62.964 18.9C63.6573 18.9 64.244 19.1667 64.724 19.7C65.204 20.22 65.444 20.94 65.444 21.86V27.26L65.864 28.28C65.8106 28.3733 65.7373 28.4867 65.644 28.62C65.5506 28.7533 65.344 28.9333 65.024 29.16C64.7173 29.3867 64.384 29.5 64.024 29.5C62.9173 29.5 62.364 28.7133 62.364 27.14V23.28C62.364 22.5733 62.244 22.0933 62.004 21.84C61.764 21.5867 61.344 21.4467 60.744 21.42L60.764 21.86V27.14C60.764 27.7667 60.844 28.2533 61.004 28.6C60.964 28.6667 60.904 28.7533 60.824 28.86C60.7573 28.9533 60.564 29.0867 60.244 29.26C59.924 29.42 59.5373 29.5 59.084 29.5C58.644 29.5 58.2973 29.36 58.044 29.08C57.804 28.8 57.684 28.4333 57.684 27.98V23.28C57.684 22.5733 57.564 22.0933 57.324 21.84C57.084 21.5867 56.644 21.4467 56.004 21.42V27.14ZM70.7154 23.48C70.7154 22.5333 70.1887 22.06 69.1354 22.06C68.5354 22.06 67.9087 22.2533 67.2554 22.64C67.042 22.4267 66.9354 22.1667 66.9354 21.86C66.9354 21.54 67.022 21.2133 67.1954 20.88C67.382 20.5467 67.622 20.2333 67.9154 19.94C68.222 19.6333 68.6087 19.3867 69.0754 19.2C69.542 19 70.0354 18.9 70.5554 18.9C71.5954 18.9 72.3954 19.2267 72.9554 19.88C73.5154 20.5333 73.7954 21.4667 73.7954 22.68V27.26L74.2354 28.28C74.182 28.3733 74.1087 28.4867 74.0154 28.62C73.922 28.7533 73.7154 28.9333 73.3954 29.16C73.0754 29.3867 72.742 29.5 72.3954 29.5C71.5287 29.5 71.002 29.02 70.8154 28.06C70.3754 29.02 69.762 29.5 68.9754 29.5C68.202 29.5 67.6087 29.26 67.1954 28.78C66.7954 28.2867 66.5954 27.6467 66.5954 26.86C66.5954 24.82 67.9687 23.74 70.7154 23.62V23.48ZM69.0954 26.12C69.0954 26.64 69.2754 26.9733 69.6354 27.12C69.7154 27.16 69.802 27.18 69.8954 27.18C70.162 27.18 70.4354 27.0267 70.7154 26.72V24.52C69.6354 24.7733 69.0954 25.3067 69.0954 26.12ZM76.6933 29.5C75.6 29.5 75.0533 28.7133 75.0533 27.14V21.14L74.6133 19.76C74.6667 19.6933 74.74 19.6067 74.8333 19.5C74.94 19.3933 75.16 19.2533 75.4933 19.08C75.8267 18.9067 76.1733 18.82 76.5333 18.82C77.3733 18.82 77.88 19.3533 78.0533 20.42C78.7067 19.4067 79.48 18.9 80.3733 18.9C81.28 18.9 81.7333 19.3267 81.7333 20.18C81.7333 20.9267 81.5733 21.54 81.2533 22.02C80.96 22.4467 80.6533 22.7867 80.3333 23.04C79.7067 22.48 78.9667 22.12 78.1133 21.96V27.26L78.5533 28.28C78.5 28.3733 78.4267 28.4867 78.3333 28.62C78.24 28.7533 78.0333 28.9333 77.7133 29.16C77.3933 29.3867 77.0533 29.5 76.6933 29.5ZM85.4632 27.14C85.4632 27.7933 85.5432 28.28 85.7032 28.6C85.6232 28.8133 85.3965 29.02 85.0232 29.22C84.6632 29.4067 84.2565 29.5 83.8032 29.5C83.3632 29.5 83.0165 29.3667 82.7632 29.1C82.5232 28.82 82.4032 28.4467 82.4032 27.98V19.54C82.4032 18.3933 82.2898 17.4733 82.0632 16.78L81.9432 16.4C81.9965 16.3333 82.0698 16.2467 82.1632 16.14C82.2698 16.0333 82.4898 15.8933 82.8232 15.72C83.1698 15.5333 83.5232 15.44 83.8832 15.44C84.9365 15.44 85.4632 16.2733 85.4632 17.94V24.18C85.7432 23.9933 86.0298 23.8733 86.3232 23.82C86.6965 22.6733 87.0365 21.1267 87.3432 19.18C87.7298 19.0067 88.2565 18.92 88.9232 18.92C89.8298 18.92 90.2832 19.3933 90.2832 20.34C90.2832 20.8467 90.0898 21.56 89.7032 22.48C89.3165 23.4 88.8365 24.12 88.2632 24.64L89.4632 26.5C89.8498 27.06 90.1432 27.4733 90.3432 27.74L90.6632 28.16C90.4632 28.7467 90.0765 29.1467 89.5032 29.36C89.2632 29.4533 88.9965 29.5 88.7032 29.5C87.9965 29.5 87.4765 29.1733 87.1432 28.52L85.4632 25.34V27.14ZM98.1043 26.64C98.2509 26.7867 98.3243 26.98 98.3243 27.22C98.3243 27.46 98.2576 27.7067 98.1243 27.96C98.0043 28.2 97.8176 28.44 97.5643 28.68C97.3243 28.9067 96.9776 29.1 96.5243 29.26C96.0709 29.42 95.5709 29.5 95.0243 29.5C94.4909 29.5 94.0109 29.4267 93.5843 29.28C93.1576 29.12 92.7509 28.8733 92.3643 28.54C91.5243 27.7933 91.1043 26.5733 91.1043 24.88C91.1043 23.1867 91.3909 21.9333 91.9643 21.12C92.5376 20.2933 93.1909 19.84 93.9243 19.76C94.4576 19.1867 95.0976 18.9 95.8443 18.9C96.6043 18.9 97.2176 19.1733 97.6843 19.72C98.1643 20.2667 98.4043 21.0133 98.4043 21.96C98.4043 23.0667 97.9976 23.94 97.1843 24.58C96.5176 25.1133 95.7176 25.52 94.7843 25.8C95.2509 26.4133 96.0243 26.72 97.1043 26.72C97.4109 26.72 97.7443 26.6933 98.1043 26.64ZM95.6243 22.94C95.6243 22.1267 95.1243 21.68 94.1243 21.6V23.4C94.1243 24 94.1776 24.48 94.2843 24.84C95.1776 24.3467 95.6243 23.7133 95.6243 22.94ZM104.63 19.34C104.763 19.6733 104.83 20.0267 104.83 20.4C104.83 20.76 104.816 21.0267 104.79 21.2C104.776 21.36 104.696 21.54 104.55 21.74C104.403 21.9267 104.21 22.02 103.97 22.02C103.73 22.02 103.383 22.0067 102.93 21.98V24.92C102.93 26.2267 103.496 27.0933 104.63 27.52C104.63 28.0133 104.456 28.4667 104.11 28.88C103.776 29.2933 103.316 29.5 102.73 29.5C101.876 29.5 101.19 29.1867 100.67 28.56C100.15 27.9333 99.8897 27.12 99.8897 26.12V21.76C99.5431 21.6667 99.2297 21.5533 98.9497 21.42L98.9297 21.18C98.9297 20.2733 99.2431 19.6667 99.8697 19.36C99.8164 18.44 99.7031 17.7133 99.5297 17.18L99.4497 16.9C99.5031 16.8333 99.5764 16.7467 99.6697 16.64C99.7764 16.5333 99.9964 16.3933 100.33 16.22C100.663 16.0467 101.01 15.96 101.37 15.96C102.41 15.96 102.93 16.7933 102.93 18.46V19.28C103.356 19.32 103.923 19.34 104.63 19.34Z" fill="white"/>
<defs>
<linearGradient id="paint0_linear_3_31" x1="-17.3648" y1="12.4215" x2="123.555" y2="21.0129" gradientUnits="userSpaceOnUse">
<stop offset="0.0102274" stop-color="#ED1C24"/>
<stop offset="1" stop-color="#ED1C24" stop-opacity="0.29"/>
</linearGradient>
</defs>
</svg>
